<?xml version="1.0" encoding="utf-8"?>
<!-- Generator: Adobe Illustrator 16.0.0, SVG Export Plug-In . SVG Version: 6.00 Build 0)  -->
<!DOCTYPE svg PUBLIC "-//W3C//DTD SVG 1.1//EN" "http://www.w3.org/Graphics/SVG/1.1/DTD/svg11.dtd">
<svg version="1.1" id="Layer_1" xmlns="http://www.w3.org/2000/svg" xmlns:xlink="http://www.w3.org/1999/xlink" x="0px" y="0px"
	 width="256.801px" height="152.614px" viewBox="0 0 256.801 152.614" enable-background="new 0 0 256.801 152.614"
	 xml:space="preserve">
<path fill="#1B8E78" d="M257.688,124.919c0,13.939-11.832,25.239-26.429,25.239H27.317c-14.596,0-26.429-11.3-26.429-25.239l0,0
	c0-13.938,11.833-25.238,26.429-25.238H231.26C245.856,99.681,257.688,110.981,257.688,124.919L257.688,124.919z"/>
<g>
	<path fill="#FFFFFF" d="M10.286,67.4c11.771,8.257,15.884,10.009,24.251,10.009c6.949,0,11.629-3.377,11.629-8.382
		c0-3.127-1.276-4.879-4.681-6.63c-1.276-0.626-4.538-1.877-13.189-5.004c-9.36-3.378-14.466-6.631-17.728-11.26
		c-2.979-3.878-4.396-8.507-4.396-13.512c0-9.383,5.247-18.14,14.041-23.02c5.672-3.252,14.324-5.004,24.109-5.004
		c9.927,0,17.018,1.376,26.804,5.129L67.014,25.74c-9.076-6.13-15.742-8.757-21.982-8.757c-5.389,0-9.218,3.002-9.218,7.131
		c0,4.629,0.851,5.129,18.437,11.134c15.6,5.254,21.84,12.26,21.84,24.646c0,10.759-5.105,20.269-13.756,25.522
		c-5.957,3.627-15.034,5.629-25.244,5.629c-11.629,0-19.572-1.75-31.626-6.881L10.286,67.4z"/>
	<path fill="#FFFFFF" d="M124.874,6.098c32.336,0,48.929,13.887,48.929,40.91c0,25.772-16.025,42.536-40.703,42.536H84.881
		c0.851-1.375,0.992-2.252,0.992-4.127V10.227c0-2.126-0.142-2.877-0.992-4.128L124.874,6.098L124.874,6.098z M121.329,76.909
		c12.479,0,19.146-10.134,19.146-28.9c0-18.641-7.232-29.275-19.712-29.275h-2.979v58.175H121.329z"/>
	<path fill="#FFFFFF" d="M184.15,67.4c11.771,8.257,15.884,10.009,24.25,10.009c6.951,0,11.632-3.377,11.632-8.382
		c0-3.127-1.277-4.879-4.681-6.63c-1.277-0.626-4.539-1.877-13.189-5.004c-9.359-3.378-14.467-6.631-17.729-11.26
		c-2.979-3.878-4.396-8.507-4.396-13.512c0-9.383,5.247-18.14,14.042-23.02c5.672-3.252,14.321-5.004,24.108-5.004
		c9.928,0,17.02,1.376,26.804,5.129L240.88,25.74c-9.077-6.13-15.741-8.757-21.983-8.757c-5.39,0-9.217,3.002-9.217,7.131
		c0,4.629,0.85,5.129,18.437,11.134c15.601,5.254,21.84,12.26,21.84,24.646c0,10.759-5.104,20.269-13.756,25.522
		c-5.956,3.627-15.034,5.629-25.245,5.629c-11.628,0-19.57-1.75-31.625-6.881L184.15,67.4z"/>
</g>
<g>
	<path fill="#FFFFFF" d="M46.211,132.01c-0.858,0.934-1.643,1.591-2.354,1.97c-1.262,0.675-2.705,1.013-4.328,1.013
		c-1.638,0-2.958-0.441-3.965-1.325c-1.234-1.068-1.852-2.497-1.852-4.291c0-2.136,0.879-3.732,2.637-4.787
		c1.019-0.603,2.153-1.087,3.401-1.455c0.697-0.195,1.864-0.521,3.502-0.976c1.515-0.405,2.402-1.013,2.656-1.823
		c0.107-0.307,0.162-0.602,0.162-0.885c0-0.761-0.309-1.398-0.926-1.914c-0.724-0.615-1.724-0.922-2.999-0.922
		c-1.409,0-2.731,0.344-3.966,1.031c-0.401,0.221-0.938,0.57-1.609,1.05l-0.685-2.504c1.005-0.43,1.858-0.749,2.556-0.959
		c1.49-0.453,3.126-0.681,4.911-0.681c2.389,0,4.214,0.491,5.475,1.474c0.966,0.749,1.449,1.774,1.449,3.075v11.656
		c0,1.13,0.423,1.693,1.268,1.693c0.335,0,0.806-0.202,1.409-0.608v2.174c-1.113,0.651-2.173,0.976-3.18,0.976
		c-1.262,0-2.18-0.35-2.757-1.049C46.695,133.55,46.427,132.905,46.211,132.01z M46.071,122.932
		c-0.497,0.258-0.813,0.411-0.946,0.46c-0.228,0.098-1.369,0.503-3.421,1.216c-1.328,0.454-2.312,1.04-2.949,1.758
		c-0.638,0.717-0.956,1.592-0.956,2.624c0,1.03,0.342,1.89,1.026,2.576c0.59,0.59,1.416,0.885,2.476,0.885
		c1.651,0,2.945-0.619,3.884-1.86c0.59-0.784,0.886-1.632,0.886-2.54V122.932z"/>
	<path fill="#FFFFFF" d="M58.285,133.317l0.724-2.67c0.766,0.577,1.41,1.013,1.933,1.308c1.368,0.761,2.804,1.142,4.307,1.142
		c1.314,0,2.342-0.344,3.079-1.032c0.685-0.65,1.027-1.398,1.027-2.246c0-0.933-0.476-1.694-1.429-2.283
		c-0.55-0.355-1.812-0.891-3.784-1.603c-2.134-0.772-3.562-1.638-4.287-2.596c-0.671-0.896-1.005-1.885-1.005-2.966
		c0-2.063,0.959-3.628,2.878-4.694c1.341-0.749,2.918-1.122,4.73-1.122c2.065,0,4.213,0.435,6.44,1.307l-0.704,2.431
		c-1.905-1.252-3.683-1.878-5.333-1.878c-1.115,0-2.033,0.276-2.757,0.829c-0.778,0.576-1.168,1.307-1.168,2.19
		c0,0.799,0.363,1.442,1.087,1.934c0.496,0.345,1.651,0.829,3.463,1.455c2.106,0.748,3.616,1.528,4.527,2.338
		c0.953,0.871,1.429,2.044,1.429,3.517c0,2.074-0.853,3.694-2.556,4.86c-1.409,0.971-3.309,1.455-5.697,1.455
		C62.866,134.993,60.564,134.433,58.285,133.317z"/>
	<path fill="#FFFFFF" d="M79.554,133.317l0.725-2.67c0.765,0.577,1.409,1.013,1.932,1.308c1.369,0.761,2.805,1.142,4.308,1.142
		c1.314,0,2.34-0.344,3.079-1.032c0.685-0.65,1.026-1.398,1.026-2.246c0-0.933-0.476-1.694-1.429-2.283
		c-0.55-0.355-1.811-0.891-3.784-1.603c-2.133-0.772-3.563-1.638-4.287-2.596c-0.671-0.896-1.006-1.885-1.006-2.966
		c0-2.063,0.959-3.628,2.879-4.694c1.342-0.749,2.918-1.122,4.729-1.122c2.067,0,4.213,0.435,6.44,1.307l-0.704,2.431
		c-1.906-1.252-3.683-1.878-5.333-1.878c-1.114,0-2.033,0.276-2.757,0.829c-0.778,0.576-1.167,1.307-1.167,2.19
		c0,0.799,0.362,1.442,1.086,1.934c0.496,0.345,1.649,0.829,3.463,1.455c2.104,0.748,3.616,1.528,4.527,2.338
		c0.953,0.871,1.429,2.044,1.429,3.517c0,2.074-0.853,3.694-2.558,4.86c-1.409,0.971-3.307,1.455-5.696,1.455
		C84.136,134.993,81.835,134.433,79.554,133.317z"/>
	<path fill="#FFFFFF" d="M111.491,114.554c3.06,0,5.488,0.981,7.287,2.945c1.663,1.816,2.495,4.254,2.495,7.311
		c0,3.203-0.954,5.732-2.858,7.587c-1.771,1.73-4.119,2.596-7.044,2.596c-3.112,0-5.528-0.944-7.246-2.835
		c-1.771-1.94-2.656-4.451-2.656-7.531c0-2.983,0.872-5.401,2.616-7.255C105.842,115.493,108.311,114.554,111.491,114.554z
		 M111.31,116.192c-0.725,0-1.436,0.188-2.134,0.563c-0.698,0.374-1.248,0.867-1.65,1.481c-1.086,1.608-1.63,3.8-1.63,6.574
		c0,2.713,0.549,4.887,1.65,6.519c0.416,0.613,0.968,1.105,1.66,1.474c0.69,0.368,1.412,0.552,2.164,0.552
		c0.752,0,1.473-0.184,2.165-0.552c0.691-0.368,1.243-0.859,1.66-1.474c1.1-1.632,1.65-3.806,1.65-6.519
		c0-2.799-0.55-5.003-1.65-6.61c-0.43-0.626-0.99-1.118-1.681-1.475C112.823,116.37,112.088,116.192,111.31,116.192z"/>
	<path fill="#FFFFFF" d="M144.414,133.592c-0.859,0.345-1.51,0.596-1.952,0.756c-1.234,0.43-2.609,0.645-4.126,0.645
		c-3.032,0-5.38-0.858-7.044-2.577c-1.771-1.829-2.657-4.291-2.657-7.384c0-3.536,1.12-6.255,3.361-8.158
		c1.838-1.547,4.247-2.319,7.226-2.319c1.636,0,3.366,0.283,5.192,0.847v2.872c-0.698-0.502-1.255-0.865-1.671-1.086
		c-1.005-0.54-2.094-0.81-3.261-0.81c-1.959,0-3.48,0.736-4.567,2.21c-1.168,1.56-1.752,3.621-1.752,6.188
		c0,2.234,0.442,4.105,1.329,5.616c1.019,1.731,2.602,2.597,4.749,2.597c1.328,0,2.597-0.368,3.804-1.104
		c0.362-0.222,0.818-0.553,1.369-0.994V133.592L144.414,133.592z"/>
	<path fill="#FFFFFF" d="M154.655,109.71c0.75,0,1.375,0.153,1.871,0.46c0.473,0.282,0.705,0.712,0.705,1.288
		c0,0.603-0.248,1.057-0.745,1.362c-0.482,0.308-1.1,0.461-1.852,0.461c-0.857,0-1.535-0.172-2.032-0.516
		c-0.416-0.295-0.625-0.712-0.625-1.253c0-0.539,0.214-0.963,0.645-1.271C153.132,109.887,153.81,109.71,154.655,109.71z
		 M152.279,115.013h4.527c-0.106,0.381-0.162,0.785-0.162,1.216v17.199c0,0.418,0.056,0.823,0.162,1.215h-4.527
		c0.106-0.368,0.161-0.773,0.161-1.215v-17.199C152.44,115.775,152.387,115.37,152.279,115.013z"/>
	<path fill="#FFFFFF" d="M177.292,132.01c-0.856,0.934-1.642,1.591-2.354,1.97c-1.26,0.675-2.703,1.013-4.328,1.013
		c-1.636,0-2.958-0.441-3.963-1.325c-1.234-1.068-1.853-2.497-1.853-4.291c0-2.136,0.88-3.732,2.636-4.787
		c1.021-0.603,2.154-1.087,3.401-1.455c0.699-0.195,1.866-0.521,3.503-0.976c1.519-0.405,2.402-1.013,2.656-1.823
		c0.11-0.307,0.162-0.602,0.162-0.885c0-0.761-0.308-1.398-0.926-1.914c-0.727-0.615-1.724-0.922-3-0.922
		c-1.409,0-2.729,0.344-3.966,1.031c-0.4,0.221-0.937,0.57-1.608,1.05l-0.685-2.504c1.006-0.43,1.859-0.749,2.556-0.959
		c1.49-0.453,3.129-0.681,4.912-0.681c2.389,0,4.214,0.491,5.474,1.474c0.966,0.749,1.449,1.774,1.449,3.075v11.656
		c0,1.13,0.424,1.693,1.268,1.693c0.337,0,0.806-0.202,1.409-0.608v2.174c-1.113,0.651-2.173,0.976-3.18,0.976
		c-1.26,0-2.178-0.35-2.757-1.049C177.775,133.55,177.508,132.905,177.292,132.01z M177.152,122.932
		c-0.496,0.258-0.813,0.411-0.946,0.46c-0.228,0.098-1.369,0.503-3.422,1.216c-1.328,0.454-2.311,1.04-2.949,1.758
		c-0.636,0.719-0.955,1.592-0.955,2.624c0,1.03,0.343,1.89,1.026,2.576c0.591,0.59,1.417,0.885,2.475,0.885
		c1.651,0,2.947-0.619,3.885-1.86c0.592-0.784,0.887-1.632,0.887-2.54V122.932L177.152,122.932z"/>
	<path fill="#FFFFFF" d="M191.74,116.837h-3.18v-1.824h3.18v-3.792l4.286-0.424c-0.053,0.726-0.08,1.202-0.08,1.437v2.779h3.462
		v1.824h-3.462v14.196c0,1.166,0.531,1.75,1.59,1.75c0.511,0,1.156-0.197,1.933-0.59v2.025c-1.167,0.516-2.375,0.772-3.623,0.772
		c-1.489,0-2.576-0.361-3.261-1.086c-0.563-0.602-0.845-1.521-0.845-2.763V116.837z"/>
	<path fill="#FFFFFF" d="M223.837,133.335c-1.046,0.479-1.952,0.829-2.718,1.05c-1.367,0.405-2.917,0.607-4.647,0.607
		c-3.648,0-6.427-0.982-8.332-2.945c-1.69-1.731-2.537-4.088-2.537-7.071c0-3.376,0.967-5.99,2.899-7.845
		c1.784-1.718,4.153-2.577,7.104-2.577c3.69,0,6.334,1.399,7.931,4.198c0.805,1.425,1.247,3.217,1.328,5.377h-14.873
		c0,2.148,0.261,3.866,0.784,5.155c1.021,2.567,3.107,3.849,6.259,3.849c2.175,0,4.234-0.761,6.18-2.283L223.837,133.335z
		 M210.112,122.397h10.264c-0.106-1.116-0.283-2.024-0.523-2.726c-0.361-1.043-0.978-1.884-1.852-2.523
		c-0.735-0.527-1.609-0.791-2.616-0.791c-1.301,0-2.428,0.473-3.381,1.417C210.971,118.807,210.341,120.348,210.112,122.397z"/>
</g>
</svg>
