<?xml version="1.0" encoding="utf-8"?>
<!-- Generator: Adobe Illustrator 16.0.0, SVG Export Plug-In . SVG Version: 6.00 Build 0)  -->
<!DOCTYPE svg PUBLIC "-//W3C//DTD SVG 1.1//EN" "http://www.w3.org/Graphics/SVG/1.1/DTD/svg11.dtd">
<svg version="1.1" id="Layer_1" xmlns="http://www.w3.org/2000/svg" xmlns:xlink="http://www.w3.org/1999/xlink" x="0px" y="0px"
	 width="135.5px" height="53.295px" viewBox="0 0 135.5 53.295" enable-background="new 0 0 135.5 53.295" xml:space="preserve">
<g>
	<path fill="#054597" d="M32.938,44.587c1.139,0,1.95,0.695,2.143,1.795h-4.285C31.008,45.282,31.8,44.587,32.938,44.587
		 M38.517,47.405c0-3.455-2.509-5.424-5.598-5.424c-3.301,0-5.752,2.239-5.752,5.385c0,3.128,2.413,5.425,6.138,5.425
		c1.988,0,3.455-0.579,4.459-1.699l-1.93-2.007c-0.714,0.617-1.39,0.907-2.413,0.907c-1.351,0-2.258-0.618-2.567-1.68h7.605
		C38.479,48.022,38.517,47.676,38.517,47.405z M21.048,41.981c-1.235,0-2.335,0.386-3.146,1.139v-4.825h-3.667v14.322h3.667V47.56
		c0-1.737,0.907-2.471,2.084-2.471c1.062,0,1.718,0.637,1.718,2.143v5.386h3.667v-5.984C25.372,43.391,23.5,41.981,21.048,41.981z
		 M5.028,52.617H8.85V42.136h4.13v-3.03H0.877v3.03h4.15V52.617z"/>
	<path fill="#029B34" d="M131.226,43.41v-1.255h-3.493v10.462h3.667v-4.807c0-1.834,1.023-2.586,2.51-2.586
		c0.27,0,0.502,0.019,0.83,0.058v-3.301C133.195,41.981,131.979,42.464,131.226,43.41 M120.455,44.587
		c1.139,0,1.949,0.695,2.143,1.795h-4.285C118.525,45.282,119.316,44.587,120.455,44.587z M126.033,47.405
		c0-3.455-2.509-5.424-5.598-5.424c-3.301,0-5.752,2.239-5.752,5.385c0,3.128,2.413,5.425,6.139,5.425
		c1.988,0,3.455-0.579,4.459-1.699l-1.931-2.007c-0.714,0.617-1.39,0.907-2.413,0.907c-1.351,0-2.258-0.618-2.566-1.68h7.604
		C125.995,48.022,126.033,47.676,126.033,47.405z M108.063,44.587c1.139,0,1.949,0.695,2.143,1.795h-4.285
		C106.133,45.282,106.924,44.587,108.063,44.587z M113.642,47.405c0-3.455-2.51-5.424-5.598-5.424c-3.301,0-5.752,2.239-5.752,5.385
		c0,3.128,2.412,5.425,6.138,5.425c1.988,0,3.455-0.579,4.459-1.699l-1.931-2.007c-0.714,0.617-1.39,0.907-2.412,0.907
		c-1.352,0-2.259-0.618-2.567-1.68h7.605C113.603,48.022,113.642,47.676,113.642,47.405z M100.94,49.625
		c-0.309,0.212-0.714,0.328-1.119,0.328c-0.656,0-1.101-0.425-1.101-1.196v-3.475h2.394v-2.741h-2.394v-2.722h-3.667v2.722h-1.525
		v2.741h1.525v3.513c0,2.684,1.563,3.996,4.246,3.996c0.965,0,1.911-0.193,2.548-0.599L100.94,49.625z M87.873,52.791
		c3.397,0,5.173-1.506,5.173-3.437c0-4.153-6.157-2.593-6.157-4.037c0-0.386,0.444-0.73,1.679-0.73c0.927,0,1.97,0.19,3.012,0.769
		l1.101-2.486c-1.043-0.579-2.664-0.888-4.131-0.888c-3.281,0-5.096,1.506-5.096,3.471c0,4.192,6.177,2.587,6.177,3.999
		c0,0.444-0.406,0.714-1.642,0.714c-1.273,0-2.683-0.366-3.647-0.968L83.24,51.71C84.264,52.347,86.098,52.791,87.873,52.791z
		 M76.793,44.587c1.139,0,1.95,0.695,2.142,1.795h-4.285C74.863,45.282,75.655,44.587,76.793,44.587z M82.372,47.405
		c0-3.455-2.51-5.424-5.598-5.424c-3.3,0-5.752,2.239-5.752,5.385c0,3.128,2.413,5.425,6.138,5.425c1.988,0,3.455-0.579,4.459-1.699
		l-1.931-2.007c-0.714,0.617-1.39,0.907-2.412,0.907c-1.352,0-2.259-0.618-2.567-1.68h7.605
		C82.333,48.022,82.372,47.676,82.372,47.405z M67.528,42.155l-2.645,6.389l-2.509-6.389h-3.764l4.304,10.462h3.783l4.324-10.462
		H67.528z M53.573,41.981c-1.313,0-2.49,0.443-3.32,1.313v-1.139h-3.494v10.462h3.667V47.56c0-1.737,0.907-2.471,2.085-2.471
		c1.062,0,1.718,0.637,1.718,2.143v5.386h3.667v-5.984C57.896,43.391,56.024,41.981,53.573,41.981z M40.39,52.617h3.821V39.105
		H40.39V52.617z"/>
	<polygon fill-rule="evenodd" clip-rule="evenodd" fill="#00AB78" points="24.215,19.934 31.806,17.979 31.806,19.448 
		24.215,21.402 	"/>
	<polygon fill-rule="evenodd" clip-rule="evenodd" fill="#007A2C" points="36.423,19.934 31.806,17.979 31.806,19.448 
		36.423,21.402 	"/>
	<polygon fill-rule="evenodd" clip-rule="evenodd" fill="#00AB78" points="24.215,22.363 31.806,20.408 31.806,21.877 
		24.215,23.832 	"/>
	<polygon fill-rule="evenodd" clip-rule="evenodd" fill="#007A2C" points="36.423,22.363 31.806,20.408 31.806,21.877 
		36.423,23.832 	"/>
	<polygon fill-rule="evenodd" clip-rule="evenodd" fill="#00AB78" points="24.215,24.792 31.806,22.837 31.806,24.306 
		24.215,26.261 	"/>
	<polygon fill-rule="evenodd" clip-rule="evenodd" fill="#007A2C" points="36.423,24.792 31.806,22.837 31.806,24.306 
		36.423,26.261 	"/>
	<polygon fill-rule="evenodd" clip-rule="evenodd" fill="#00AB78" points="24.215,27.221 31.806,25.267 31.806,26.735 
		24.215,28.689 	"/>
	<polygon fill-rule="evenodd" clip-rule="evenodd" fill="#007A2C" points="36.423,27.221 31.806,25.267 31.806,26.735 
		36.423,28.689 	"/>
	<path fill-rule="evenodd" clip-rule="evenodd" fill="#00AB78" d="M24.215,29.65l7.591-1.955v0.65
		c-0.052,0.025-0.104,0.054-0.154,0.086c-0.074,0.046-0.142,0.098-0.204,0.153l-1.224,0.987l-6.009,1.547V29.65z"/>
	<path fill-rule="evenodd" clip-rule="evenodd" fill="#007A2C" d="M36.423,29.65l-4.617-1.955v0.65
		c0.186-0.088,0.385-0.133,0.587-0.132c0.258-0.001,0.513,0.072,0.741,0.218c0.074,0.046,0.142,0.098,0.204,0.153l3.084,2.487V29.65
		z"/>
	<polygon fill-rule="evenodd" clip-rule="evenodd" fill="#00AB78" points="24.215,17.578 31.806,15.624 31.806,17.093 
		24.215,19.048 	"/>
	<polygon fill-rule="evenodd" clip-rule="evenodd" fill="#007A2C" points="36.423,17.578 31.806,15.624 31.806,17.093 
		36.423,19.048 	"/>
	<polygon fill-rule="evenodd" clip-rule="evenodd" fill="#00AB78" points="24.215,15.224 31.806,13.269 31.806,14.737 
		24.215,16.692 	"/>
	<polygon fill-rule="evenodd" clip-rule="evenodd" fill="#007A2C" points="36.423,15.224 31.806,13.269 31.806,14.737 
		36.423,16.692 	"/>
	<polygon fill-rule="evenodd" clip-rule="evenodd" fill="#00AB78" points="24.215,12.868 31.806,10.913 31.806,12.382 
		24.215,14.337 	"/>
	<polygon fill-rule="evenodd" clip-rule="evenodd" fill="#007A2C" points="36.423,12.868 31.806,10.913 31.806,12.382 
		36.423,14.337 	"/>
	<polygon fill-rule="evenodd" clip-rule="evenodd" fill="#00AB78" points="24.215,10.513 31.806,8.558 31.806,10.026 24.215,11.981 
			"/>
	<polygon fill-rule="evenodd" clip-rule="evenodd" fill="#007A2C" points="36.423,10.513 31.806,8.558 31.806,10.026 36.423,11.981 
			"/>
	<polygon fill-rule="evenodd" clip-rule="evenodd" fill="#00AB78" points="24.215,8.157 31.806,6.202 31.806,7.671 24.215,9.626 	
		"/>
	<polygon fill-rule="evenodd" clip-rule="evenodd" fill="#007A2C" points="36.423,8.157 31.806,6.202 31.806,7.671 36.423,9.626 	
		"/>
	<polygon fill-rule="evenodd" clip-rule="evenodd" fill="#00AB78" points="24.215,5.802 31.806,3.848 31.806,5.315 24.215,7.271 	
		"/>
	<polygon fill-rule="evenodd" clip-rule="evenodd" fill="#007A2C" points="36.423,5.802 31.806,3.848 31.806,5.315 36.423,7.271 	
		"/>
	<polygon fill-rule="evenodd" clip-rule="evenodd" fill="#00AB78" points="24.215,3.446 31.806,1.492 31.806,2.961 24.215,4.915 	
		"/>
	<polygon fill-rule="evenodd" clip-rule="evenodd" fill="#007A2C" points="36.423,3.446 31.806,1.492 31.806,2.961 36.423,4.915 	
		"/>
	<polygon fill-rule="evenodd" clip-rule="evenodd" fill="#009DC2" points="36.423,26.98 42.17,25.501 42.17,26.613 36.423,28.093 	
		"/>
	<polygon fill-rule="evenodd" clip-rule="evenodd" fill="#054597" points="45.665,26.98 42.17,25.501 42.17,26.613 45.665,28.093 	
		"/>
	<polygon fill-rule="evenodd" clip-rule="evenodd" fill="#009DC2" points="36.423,28.82 42.17,27.34 42.17,28.452 36.423,29.932 	
		"/>
	<polygon fill-rule="evenodd" clip-rule="evenodd" fill="#054597" points="45.665,28.82 42.17,27.34 42.17,28.452 45.665,29.932 	
		"/>
	<polygon fill-rule="evenodd" clip-rule="evenodd" fill="#009DC2" points="36.423,30.659 40.796,29.533 38.771,31.167 37.08,31.602 
		36.423,31.072 	"/>
	<polygon fill-rule="evenodd" clip-rule="evenodd" fill="#054597" points="45.665,30.659 44.6,30.208 45.665,31.067 	"/>
	<polygon fill-rule="evenodd" clip-rule="evenodd" fill="#009DC2" points="36.423,25.198 42.17,23.718 42.17,24.83 36.423,26.31 	
		"/>
	<polygon fill-rule="evenodd" clip-rule="evenodd" fill="#054597" points="45.665,25.198 42.17,23.718 42.17,24.83 45.665,26.31 	
		"/>
	<polygon fill-rule="evenodd" clip-rule="evenodd" fill="#009DC2" points="36.423,23.414 42.17,21.935 42.17,23.047 36.423,24.526 	
		"/>
	<polygon fill-rule="evenodd" clip-rule="evenodd" fill="#054597" points="45.665,23.414 42.17,21.935 42.17,23.047 45.665,24.526 	
		"/>
	<polygon fill-rule="evenodd" clip-rule="evenodd" fill="#009DC2" points="36.423,21.631 42.17,20.151 42.17,21.264 36.423,22.743 	
		"/>
	<polygon fill-rule="evenodd" clip-rule="evenodd" fill="#054597" points="45.665,21.631 42.17,20.151 42.17,21.264 45.665,22.743 	
		"/>
	<polygon fill-rule="evenodd" clip-rule="evenodd" fill="#009DC2" points="36.423,19.849 42.17,18.368 42.17,19.48 36.423,20.96 	
		"/>
	<polygon fill-rule="evenodd" clip-rule="evenodd" fill="#054597" points="45.665,19.849 42.17,18.368 42.17,19.48 45.665,20.96 	
		"/>
	<polygon fill-rule="evenodd" clip-rule="evenodd" fill="#009DC2" points="36.423,18.065 42.17,16.585 42.17,17.697 36.423,19.177 	
		"/>
	<polygon fill-rule="evenodd" clip-rule="evenodd" fill="#054597" points="45.665,18.065 42.17,16.585 42.17,17.697 45.665,19.177 	
		"/>
	<polygon fill-rule="evenodd" clip-rule="evenodd" fill="#009DC2" points="36.423,16.282 42.17,14.802 42.17,15.914 36.423,17.394 	
		"/>
	<polygon fill-rule="evenodd" clip-rule="evenodd" fill="#054597" points="45.665,16.282 42.17,14.802 42.17,15.914 45.665,17.394 	
		"/>
	<polygon fill-rule="evenodd" clip-rule="evenodd" fill="#009DC2" points="36.423,14.499 42.17,13.019 42.17,14.131 36.423,15.61 	
		"/>
	<polygon fill-rule="evenodd" clip-rule="evenodd" fill="#054597" points="45.665,14.499 42.17,13.019 42.17,14.131 45.665,15.61 	
		"/>
	<polygon fill-rule="evenodd" clip-rule="evenodd" fill="#00AB78" points="45.665,18.563 50.666,17.276 50.666,18.243 
		45.665,19.531 	"/>
	<polygon fill-rule="evenodd" clip-rule="evenodd" fill="#007A2C" points="53.707,18.563 50.666,17.276 50.666,18.243 
		53.707,19.531 	"/>
	<polygon fill-rule="evenodd" clip-rule="evenodd" fill="#00AB78" points="45.665,20.164 50.666,18.876 50.666,19.844 
		45.665,21.132 	"/>
	<polygon fill-rule="evenodd" clip-rule="evenodd" fill="#007A2C" points="53.707,20.164 50.666,18.876 50.666,19.844 
		53.707,21.132 	"/>
	<polygon fill-rule="evenodd" clip-rule="evenodd" fill="#00AB78" points="45.665,21.764 50.666,20.477 50.666,21.444 
		45.665,22.731 	"/>
	<polygon fill-rule="evenodd" clip-rule="evenodd" fill="#007A2C" points="53.707,21.764 50.666,20.477 50.666,21.444 
		53.707,22.731 	"/>
	<polygon fill-rule="evenodd" clip-rule="evenodd" fill="#00AB78" points="45.665,23.364 50.666,22.076 50.666,23.044 
		45.665,24.332 	"/>
	<polygon fill-rule="evenodd" clip-rule="evenodd" fill="#007A2C" points="53.707,23.364 50.666,22.076 50.666,23.044 
		53.707,24.332 	"/>
	<polygon fill-rule="evenodd" clip-rule="evenodd" fill="#00AB78" points="45.665,24.965 50.666,23.677 50.666,24.645 
		45.665,25.932 	"/>
	<polygon fill-rule="evenodd" clip-rule="evenodd" fill="#007A2C" points="53.707,24.965 50.666,23.677 50.666,24.645 
		53.707,25.932 	"/>
	<polygon fill-rule="evenodd" clip-rule="evenodd" fill="#00AB78" points="45.665,17.013 50.666,15.725 50.666,16.692 
		45.665,17.979 	"/>
	<polygon fill-rule="evenodd" clip-rule="evenodd" fill="#007A2C" points="53.707,17.013 50.666,15.725 50.666,16.692 
		53.707,17.979 	"/>
	<polygon fill-rule="evenodd" clip-rule="evenodd" fill="#00AB78" points="45.665,15.46 50.666,14.173 50.666,15.141 45.665,16.429 
			"/>
	<polygon fill-rule="evenodd" clip-rule="evenodd" fill="#007A2C" points="53.707,15.46 50.666,14.173 50.666,15.141 53.707,16.429 
			"/>
	<polygon fill-rule="evenodd" clip-rule="evenodd" fill="#00AB78" points="45.665,13.909 50.666,12.622 50.666,13.589 
		45.665,14.876 	"/>
	<polygon fill-rule="evenodd" clip-rule="evenodd" fill="#007A2C" points="53.707,13.909 50.666,12.622 50.666,13.589 
		53.707,14.876 	"/>
	<polygon fill-rule="evenodd" clip-rule="evenodd" fill="#00AB78" points="45.665,12.357 50.666,11.069 50.666,12.038 
		45.665,13.325 	"/>
	<polygon fill-rule="evenodd" clip-rule="evenodd" fill="#007A2C" points="53.707,12.357 50.666,11.069 50.666,12.038 
		53.707,13.325 	"/>
	<polygon fill-rule="evenodd" clip-rule="evenodd" fill="#00AB78" points="45.665,10.806 50.666,9.519 50.666,10.485 45.665,11.773 
			"/>
	<polygon fill-rule="evenodd" clip-rule="evenodd" fill="#007A2C" points="53.707,10.806 50.666,9.519 50.666,10.485 53.707,11.773 
			"/>
	<polygon fill-rule="evenodd" clip-rule="evenodd" fill="#00AB78" points="45.665,9.255 50.666,7.967 50.666,8.935 45.665,10.222 	
		"/>
	<polygon fill-rule="evenodd" clip-rule="evenodd" fill="#007A2C" points="53.707,9.255 50.666,7.967 50.666,8.935 53.707,10.222 	
		"/>
	<polygon fill-rule="evenodd" clip-rule="evenodd" fill="#00AB78" points="45.665,7.702 50.666,6.415 50.666,7.383 45.665,8.671 	
		"/>
	<polygon fill-rule="evenodd" clip-rule="evenodd" fill="#007A2C" points="53.707,7.702 50.666,6.415 50.666,7.383 53.707,8.671 	
		"/>
	<polygon fill-rule="evenodd" clip-rule="evenodd" fill="#00AB78" points="45.665,26.692 50.666,25.405 50.666,26.372 45.665,27.66 
			"/>
	<polygon fill-rule="evenodd" clip-rule="evenodd" fill="#007A2C" points="53.707,26.692 50.666,25.405 50.666,26.372 53.707,27.66 
			"/>
	<polygon fill-rule="evenodd" clip-rule="evenodd" fill="#00AB78" points="45.665,28.496 50.666,27.208 50.666,28.176 
		45.665,29.463 	"/>
	<polygon fill-rule="evenodd" clip-rule="evenodd" fill="#007A2C" points="53.707,28.496 50.666,27.208 50.666,28.176 
		53.707,29.463 	"/>
	<polygon fill-rule="evenodd" clip-rule="evenodd" fill="#00AB78" points="45.665,30.299 50.666,29.012 50.666,29.979 
		45.853,31.218 45.665,31.067 	"/>
	<polygon fill-rule="evenodd" clip-rule="evenodd" fill="#007A2C" points="53.707,30.299 50.666,29.012 50.666,29.979 
		53.707,31.267 	"/>
	<polygon fill-rule="evenodd" clip-rule="evenodd" fill="#00AB78" points="46.638,31.852 50.666,30.814 50.666,31.782 
		47.547,32.585 	"/>
	<polygon fill-rule="evenodd" clip-rule="evenodd" fill="#007A2C" points="53.707,32.103 50.666,30.814 50.666,31.782 
		53.707,33.069 	"/>
	<polygon fill-rule="evenodd" clip-rule="evenodd" fill="#00AB78" points="48.333,33.219 50.666,32.618 50.666,33.585 
		49.243,33.952 	"/>
	<polygon fill-rule="evenodd" clip-rule="evenodd" fill="#007A2C" points="53.707,33.905 50.666,32.618 50.666,33.585 
		53.707,34.873 	"/>
	<polygon fill-rule="evenodd" clip-rule="evenodd" fill="#00AB78" points="50.028,34.586 50.666,34.421 50.666,35.1 	"/>
	<polygon fill-rule="evenodd" clip-rule="evenodd" fill="#007A2C" points="53.707,35.709 50.666,34.421 50.666,35.1 51.421,35.708 
		53.707,36.676 	"/>
	<polygon fill-rule="evenodd" clip-rule="evenodd" fill="#007A2C" points="31.626,38.715 42.279,30.124 42.279,32.619 31.626,41.21 
			"/>
	<polygon fill-rule="evenodd" clip-rule="evenodd" fill="#007A2C" points="52.933,38.715 42.279,30.124 42.279,32.619 52.933,41.21 
			"/>
	<polygon fill-rule="evenodd" clip-rule="evenodd" fill="#007A2C" points="21.74,38.2 32.393,29.609 32.393,32.105 21.74,40.696 	
		"/>
	<polygon fill-rule="evenodd" clip-rule="evenodd" fill="#007A2C" points="37.294,33.563 32.393,29.609 32.393,32.105 
		35.636,34.721 	"/>
</g>
</svg>
